<svg xmlns="http://www.w3.org/2000/svg" xmlns:xlink="http://www.w3.org/1999/xlink" fill="none" version="1.1" width="26" height="26" viewBox="0 0 26 26"><clipPath id="master_svg_0"><rect x="0" y="0" width="26" height="26" rx="0"/></clipPath><g clip-path="url(#master_svg_0)" style="mix-blend-mode:passthrough"><g><g style="mix-blend-mode:passthrough"><path d="M3.25,2.16667C2.651691,2.16667,2.16667,2.651691,2.16667,3.25C2.16667,3.848309,2.651691,4.33333,3.25,4.33333C3.25,4.33333,3.25,2.16667,3.25,2.16667C3.25,2.16667,3.25,2.16667,3.25,2.16667ZM18.9583,20.0417C19.5567,20.0417,20.0417,19.5567,20.0417,18.9583C20.0417,18.36,19.5567,17.875,18.9583,17.875C18.9583,17.875,18.9583,20.0417,18.9583,20.0417C18.9583,20.0417,18.9583,20.0417,18.9583,20.0417ZM9.39254,17.230600000000003C9.39254,17.230600000000003,8.33168,17.4501,8.33168,17.4501C8.33168,17.4501,9.39254,17.230600000000003,9.39254,17.230600000000003C9.39254,17.230600000000003,9.39254,17.230600000000003,9.39254,17.230600000000003ZM3.25,4.33333C3.25,4.33333,4.73573,4.33333,4.73573,4.33333C4.73573,4.33333,4.73573,2.16667,4.73573,2.16667C4.73573,2.16667,3.25,2.16667,3.25,2.16667C3.25,2.16667,3.25,4.33333,3.25,4.33333C3.25,4.33333,3.25,4.33333,3.25,4.33333ZM5.79659,5.19717C5.79659,5.19717,8.33168,17.4501,8.33168,17.4501C8.33168,17.4501,10.45341,17.0111,10.45341,17.0111C10.45341,17.0111,7.91832,4.75819,7.91832,4.75819C7.91832,4.75819,5.79659,5.19717,5.79659,5.19717C5.79659,5.19717,5.79659,5.19717,5.79659,5.19717ZM11.51427,20.0417C11.51427,20.0417,18.9583,20.0417,18.9583,20.0417C18.9583,20.0417,18.9583,17.875,18.9583,17.875C18.9583,17.875,11.51427,17.875,11.51427,17.875C11.51427,17.875,11.51427,20.0417,11.51427,20.0417C11.51427,20.0417,11.51427,20.0417,11.51427,20.0417ZM8.33168,17.4501C8.643930000000001,18.9593,9.97316,20.0417,11.51427,20.0417C11.51427,20.0417,11.51427,17.875,11.51427,17.875C11.00057,17.875,10.55749,17.514200000000002,10.45341,17.0111C10.45341,17.0111,8.33168,17.4501,8.33168,17.4501C8.33168,17.4501,8.33168,17.4501,8.33168,17.4501ZM4.73573,4.33333C5.24943,4.33333,5.6925,4.6941299999999995,5.79659,5.19717C5.79659,5.19717,7.91832,4.75819,7.91832,4.75819C7.60607,3.249033831,6.27684,2.16667,4.73573,2.16667C4.73573,2.16667,4.73573,4.33333,4.73573,4.33333C4.73573,4.33333,4.73573,4.33333,4.73573,4.33333Z" fill="#000000" fill-opacity="1"/></g><g style="mix-blend-mode:passthrough"><path d="M7.3929443359375,6.500005876464844C6.7946353359375,6.500005876464844,6.3096143359375,6.985026876464843,6.3096143359375,7.583335876464844C6.3096143359375,8.181644876464844,6.7946353359375,8.666665876464844,7.3929443359375,8.666665876464844C7.3929443359375,8.666665876464844,7.3929443359375,6.500005876464844,7.3929443359375,6.500005876464844C7.3929443359375,6.500005876464844,7.3929443359375,6.500005876464844,7.3929443359375,6.500005876464844ZM8.9671543359375,14.083335876464844C8.3688543359375,14.083335876464844,7.8838293359375005,14.568365876464844,7.8838293359375005,15.166665876464844C7.8838293359375005,15.764975876464844,8.3688543359375,16.250005876464844,8.9671543359375,16.250005876464844C8.9671543359375,16.250005876464844,8.9671543359375,14.083335876464844,8.9671543359375,14.083335876464844C8.9671543359375,14.083335876464844,8.9671543359375,14.083335876464844,8.9671543359375,14.083335876464844ZM21.256744335937498,12.809505876464844C21.256744335937498,12.809505876464844,20.215144335937502,12.511895876464845,20.215144335937502,12.511895876464845C20.215144335937502,12.511895876464845,21.256744335937498,12.809505876464844,21.256744335937498,12.809505876464844C21.256744335937498,12.809505876464844,21.256744335937498,12.809505876464844,21.256744335937498,12.809505876464844ZM22.355544335937502,8.964285876464844C22.355544335937502,8.964285876464844,23.3971443359375,9.261895876464845,23.3971443359375,9.261895876464845C23.3971443359375,9.261895876464845,22.355544335937502,8.964285876464844,22.355544335937502,8.964285876464844C22.355544335937502,8.964285876464844,22.355544335937502,8.964285876464844,22.355544335937502,8.964285876464844ZM7.3929443359375,8.666665876464844C7.3929443359375,8.666665876464844,21.3138443359375,8.666665876464844,21.3138443359375,8.666665876464844C21.3138443359375,8.666665876464844,21.3138443359375,6.500005876464844,21.3138443359375,6.500005876464844C21.3138443359375,6.500005876464844,7.3929443359375,6.500005876464844,7.3929443359375,6.500005876464844C7.3929443359375,6.500005876464844,7.3929443359375,8.666665876464844,7.3929443359375,8.666665876464844C7.3929443359375,8.666665876464844,7.3929443359375,8.666665876464844,7.3929443359375,8.666665876464844ZM21.3138443359375,8.666665876464844C21.3138443359375,8.666665876464844,20.215144335937502,12.511895876464845,20.215144335937502,12.511895876464845C20.215144335937502,12.511895876464845,22.2985443359375,13.107125876464844,22.2985443359375,13.107125876464844C22.2985443359375,13.107125876464844,23.3971443359375,9.261895876464845,23.3971443359375,9.261895876464845C23.3971443359375,9.261895876464845,21.3138443359375,8.666665876464844,21.3138443359375,8.666665876464844C21.3138443359375,8.666665876464844,21.3138443359375,8.666665876464844,21.3138443359375,8.666665876464844ZM18.1319443359375,14.083335876464844C18.1319443359375,14.083335876464844,8.9671543359375,14.083335876464844,8.9671543359375,14.083335876464844C8.9671543359375,14.083335876464844,8.9671543359375,16.250005876464844,8.9671543359375,16.250005876464844C8.9671543359375,16.250005876464844,18.1319443359375,16.250005876464844,18.1319443359375,16.250005876464844C18.1319443359375,16.250005876464844,18.1319443359375,14.083335876464844,18.1319443359375,14.083335876464844C18.1319443359375,14.083335876464844,18.1319443359375,14.083335876464844,18.1319443359375,14.083335876464844ZM20.215144335937502,12.511895876464845C19.9494443359375,13.442045876464844,19.0992443359375,14.083335876464844,18.1319443359375,14.083335876464844C18.1319443359375,14.083335876464844,18.1319443359375,16.250005876464844,18.1319443359375,16.250005876464844C20.0666443359375,16.250005876464844,21.766944335937502,14.967435876464844,22.2985443359375,13.107125876464844C22.2985443359375,13.107125876464844,20.215144335937502,12.511895876464845,20.215144335937502,12.511895876464845C20.215144335937502,12.511895876464845,20.215144335937502,12.511895876464845,20.215144335937502,12.511895876464845ZM21.3138443359375,8.666665876464844C21.3138443359375,8.666665876464844,21.3138443359375,8.666665876464844,21.3138443359375,8.666665876464844C21.3138443359375,8.666665876464844,23.3971443359375,9.261895876464845,23.3971443359375,9.261895876464845C23.7925443359375,7.877795876464844,22.7533443359375,6.500005876464844,21.3138443359375,6.500005876464844C21.3138443359375,6.500005876464844,21.3138443359375,8.666665876464844,21.3138443359375,8.666665876464844C21.3138443359375,8.666665876464844,21.3138443359375,8.666665876464844,21.3138443359375,8.666665876464844Z" fill="#000000" fill-opacity="1"/></g><g style="mix-blend-mode:passthrough"><ellipse cx="17.875040650367737" cy="22.208330750465393" rx="0.5416666269302368" ry="0.5416666269302368" fill="#000000" fill-opacity="1"/><ellipse cx="17.875040650367737" cy="22.208330750465393" rx="0.5416666269302368" ry="0.5416666269302368" fill-opacity="0" stroke-opacity="1" stroke="#000000" stroke-width="2" fill="none" stroke-linecap="round" stroke-dasharray="" stroke-linejoin="round"/></g><g style="mix-blend-mode:passthrough"><ellipse cx="11.375040650367737" cy="23.291666626930237" rx="0.5416666269302368" ry="0.5416666269302368" transform="matrix(1,0,0,-1,0,45.5)" fill="#000000" fill-opacity="1"/><ellipse cx="11.375040650367737" cy="23.291666626930237" rx="0.5416666269302368" ry="0.5416666269302368" transform="matrix(1,0,0,-1,0,45.5)" fill-opacity="0" stroke-opacity="1" stroke="#000000" stroke-width="2" fill="none" stroke-linecap="round" stroke-dasharray="" stroke-linejoin="round"/></g></g></g></svg>