<svg xmlns="http://www.w3.org/2000/svg" xmlns:xlink="http://www.w3.org/1999/xlink" fill="none" version="1.1" width="35" height="35" viewBox="0 0 35 35"><clipPath id="master_svg_0"><rect x="0" y="0" width="35" height="35" rx="0"/></clipPath><g clip-path="url(#master_svg_0)" style="mix-blend-mode:passthrough"><g><g style="mix-blend-mode:passthrough"><path d="M12.697948046875,10.635456494140625C12.128432046875,10.065946494140626,11.205064046875,10.065946494140626,10.635548046875,10.635456494140625C10.066038046875,11.204972494140625,10.066038046875,12.128340494140625,10.635548046875,12.697856494140625C10.635548046875,12.697856494140625,12.697948046875,10.635456494140625,12.697948046875,10.635456494140625C12.697948046875,10.635456494140625,12.697948046875,10.635456494140625,12.697948046875,10.635456494140625ZM22.302248046875,24.364556494140626C22.871748046875,24.934056494140627,23.795048046875,24.934056494140627,24.364648046875,24.364556494140626C24.934148046875002,23.794956494140624,24.934148046875002,22.871656494140623,24.364648046875,22.302156494140625C24.364648046875,22.302156494140625,22.302248046875,24.364556494140626,22.302248046875,24.364556494140626C22.302248046875,24.364556494140626,22.302248046875,24.364556494140626,22.302248046875,24.364556494140626ZM10.635548046875,12.697856494140625C10.635548046875,12.697856494140625,22.302248046875,24.364556494140626,22.302248046875,24.364556494140626C22.302248046875,24.364556494140626,24.364648046875,22.302156494140625,24.364648046875,22.302156494140625C24.364648046875,22.302156494140625,12.697948046875,10.635456494140625,12.697948046875,10.635456494140625C12.697948046875,10.635456494140625,10.635548046875,12.697856494140625,10.635548046875,12.697856494140625C10.635548046875,12.697856494140625,10.635548046875,12.697856494140625,10.635548046875,12.697856494140625Z" fill="#000000" fill-opacity="1"/></g><g style="mix-blend-mode:passthrough"><path d="M24.364451953125,10.635456494140625C23.794935953124998,10.065946494140626,22.871567953125002,10.065946494140626,22.302051953125,10.635456494140625C21.732541953125,11.204972494140625,21.732541953125,12.128340494140625,22.302051953125,12.697856494140625C22.302051953125,12.697856494140625,24.364451953125,10.635456494140625,24.364451953125,10.635456494140625C24.364451953125,10.635456494140625,24.364451953125,10.635456494140625,24.364451953125,10.635456494140625ZM33.968751953125,24.364556494140626C34.538251953125,24.934056494140627,35.461551953124996,24.934056494140627,36.031151953125004,24.364556494140626C36.600651953125,23.794956494140624,36.600651953125,22.871656494140623,36.031151953125004,22.302156494140625C36.031151953125004,22.302156494140625,33.968751953125,24.364556494140626,33.968751953125,24.364556494140626C33.968751953125,24.364556494140626,33.968751953125,24.364556494140626,33.968751953125,24.364556494140626ZM22.302051953125,12.697856494140625C22.302051953125,12.697856494140625,33.968751953125,24.364556494140626,33.968751953125,24.364556494140626C33.968751953125,24.364556494140626,36.031151953125004,22.302156494140625,36.031151953125004,22.302156494140625C36.031151953125004,22.302156494140625,24.364451953125,10.635456494140625,24.364451953125,10.635456494140625C24.364451953125,10.635456494140625,22.302051953125,12.697856494140625,22.302051953125,12.697856494140625C22.302051953125,12.697856494140625,22.302051953125,12.697856494140625,22.302051953125,12.697856494140625Z" transform="matrix(0,1,-1,0,34.999908447265625,-11.666595458984375)" fill="#000000" fill-opacity="1"/></g></g></g></svg>