<svg xmlns="http://www.w3.org/2000/svg" xmlns:xlink="http://www.w3.org/1999/xlink" fill="none" version="1.1" width="7" height="14" viewBox="0 0 7 14"><g style="mix-blend-mode:passthrough"><path d="M6.292893,6.29289C5.9023699999999995,6.68342,5.9023699999999995,7.31658,6.292893,7.70711C6.683417,8.09763,7.316583,8.09763,7.707107,7.70711C7.707107,7.70711,6.292893,6.29289,6.292893,6.29289C6.292893,6.29289,6.292893,6.29289,6.292893,6.29289ZM20.2929,7.70711C20.6834,8.09763,21.3166,8.09763,21.7071,7.70711C22.0976,7.31658,22.0976,6.68342,21.7071,6.29289C21.7071,6.29289,20.2929,7.70711,20.2929,7.70711C20.2929,7.70711,20.2929,7.70711,20.2929,7.70711ZM14.70711,0.707107C14.70711,0.707107,14,1.41421,14,1.41421C14,1.41421,14.70711,0.707107,14.70711,0.707107C14.70711,0.707107,14.70711,0.707107,14.70711,0.707107ZM7.707107,7.70711C7.707107,7.70711,14,1.41421,14,1.41421C14,1.41421,12.58579,-7.27357e-7,12.58579,-7.27357e-7C12.58579,-7.27357e-7,6.292893,6.29289,6.292893,6.29289C6.292893,6.29289,7.707107,7.70711,7.707107,7.70711C7.707107,7.70711,7.707107,7.70711,7.707107,7.70711ZM14,1.41421C14,1.41421,20.2929,7.70711,20.2929,7.70711C20.2929,7.70711,21.7071,6.29289,21.7071,6.29289C21.7071,6.29289,15.41421,2.79954e-9,15.41421,2.79954e-9C15.41421,2.79954e-9,14,1.41421,14,1.41421C14,1.41421,14,1.41421,14,1.41421ZM14,1.41421C14,1.41421,14,1.41421,14,1.41421C14,1.41421,15.41421,2.79954e-9,15.41421,2.79954e-9C14.63317,-0.781048,13.36684,-0.78105,12.58579,-7.27357e-7C12.58579,-7.27357e-7,14,1.41421,14,1.41421C14,1.41421,14,1.41421,14,1.41421Z" transform="matrix(0,1,-1,0,7,-7)" fill="#000000" fill-opacity="1"/></g></svg>