<svg xmlns="http://www.w3.org/2000/svg" xmlns:xlink="http://www.w3.org/1999/xlink" fill="#000000" version="1.1" width="27" height="27" viewBox="0 0 27 27"><g style="mix-blend-mode:passthrough"><g><g style="mix-blend-mode:passthrough"><path d="M11.94313232421875,4.7802734375C9.91266232421875,4.7802734375,8.25254232421875,6.3658934375000005,8.13345232421875,8.3664334375L5.84735232421875,8.5521034375C4.59757232421875,8.6536034375,3.5697323242187498,9.577793437499999,3.33646032421875,10.809803437500001C2.79525132421875,13.6681634375,2.75489632421875,16.5988734375,3.21719732421875,19.4709734375L3.32660332421875,20.1506734375C3.55341532421875,21.5598734375,4.71319232421875,22.6319734375,6.13578232421875,22.7475734375L8.32090232421875,22.9249734375C11.76794232421875,23.2048734375,15.23193232421875,23.2048734375,18.679032324218753,22.9249734375L20.86413232421875,22.7475734375C22.28673232421875,22.6319734375,23.44663232421875,21.5598734375,23.67343232421875,20.1506734375L23.78273232421875,19.4709734375C24.24503232421875,16.5988734375,24.20473232421875,13.6681634375,23.66353232421875,10.809803437500001C23.43013232421875,9.577793437499999,22.40233232421875,8.6536034375,21.15263232421875,8.5521034375L18.866532324218753,8.3664334375C18.74733232421875,6.3658934375000005,17.08733232421875,4.7802734375,15.05683232421875,4.7802734375L11.94313232421875,4.7802734375ZM9.81412232421875,8.596783437500001C9.81412232421875,7.4209634375,10.76731232421875,6.4677734375,11.94313232421875,6.4677734375L15.05683232421875,6.4677734375C16.23263232421875,6.4677734375,17.18583232421875,7.4209634375,17.18583232421875,8.596783437500001C17.18583232421875,9.3459834375,17.76093232421875,9.9697234375,18.50773232421875,10.0303534375L21.01603232421875,10.234073437500001C21.50843232421875,10.2740634375,21.91353232421875,10.638253437500001,22.00543232421875,11.1237434375C22.51023232421875,13.7899934375,22.54793232421875,16.5236734375,22.11673232421875,19.2028734375L22.00723232421875,19.8825734375C21.90403232421875,20.524573437500003,21.37553232421875,21.0128734375,20.72753232421875,21.0655734375L18.542532324218747,21.2429734375C15.18623232421875,21.5155734375,11.81363232421875,21.5155734375,8.457502324218751,21.2429734375L6.27238232421875,21.0655734375C5.62432232421875,21.0128734375,5.09599232421875,20.524573437500003,4.99265232421875,19.8825734375L4.88325232421875,19.2028734375C4.45202232421875,16.5236734375,4.48967232421875,13.7899934375,4.99450232421875,11.1237434375C5.08642232421875,10.638253437500001,5.49146232421875,10.2740634375,5.98395232421875,10.234073437500001L8.49225232421875,10.0303534375C9.23899232421875,9.9697034375,9.81412232421875,9.3459834375,9.81412232421875,8.596783437500001ZM13.49993232421875,10.4052734375C11.17002232421875,10.4052734375,9.28122232421875,12.2940734375,9.28122232421875,14.6240234375C9.28122232421875,16.9539734375,11.17002232421875,18.8427734375,13.49993232421875,18.8427734375C15.82993232421875,18.8427734375,17.71873232421875,16.9539734375,17.71873232421875,14.6240234375C17.71873232421875,12.2940734375,15.82993232421875,10.4052734375,13.49993232421875,10.4052734375ZM10.96872232421875,14.6240234375C10.96872232421875,13.2260534375,12.10200232421875,12.0927734375,13.49993232421875,12.0927734375C14.89793232421875,12.0927734375,16.03123232421875,13.2260534375,16.03123232421875,14.6240234375C16.03123232421875,16.0219734375,14.89793232421875,17.1552734375,13.49993232421875,17.1552734375C12.10200232421875,17.1552734375,10.96872232421875,16.0219734375,10.96872232421875,14.6240234375Z" /></g></g></g></svg>