<svg xmlns="http://www.w3.org/2000/svg" xmlns:xlink="http://www.w3.org/1999/xlink" fill="#000000" version="1.1" width="24" height="24" viewBox="0 0 24 24"><clipPath id="master_svg_0"><rect x="0" y="0" width="24" height="24" rx="0"/></clipPath><g clip-path="url(#master_svg_0)" style="mix-blend-mode:passthrough"><g><g style="mix-blend-mode:passthrough"><path d="M6.9999999046326,11C6.447715,11,6,11.44772,6,12C6,12.55229,6.447715,13,7.0000000953674,13C7.0000000953674,13,6.9999999046326,11,6.9999999046326,11C6.9999999046326,11,6.9999999046326,11,6.9999999046326,11ZM17,13C17.552300000000002,13,18,12.55228,18,12C18,11.44771,17.552300000000002,11,17,11C17,11,17,13,17,13C17,13,17,13,17,13ZM13,7C13,6.447715,12.55228,6,12,6C11.44772,6,11,6.447715,11,7C11,7,13,7,13,7C13,7,13,7,13,7ZM11,17C11,17.552300000000002,11.44771,18,12,18C12.55228,18,13,17.552300000000002,13,17C13,17,11,17,11,17C11,17,11,17,11,17ZM7.0000000953674,13C7.0000000953674,13,12,13,12,13C12,13,12,11,12,11C12,11,6.9999999046326,11,6.9999999046326,11C6.9999999046326,11,7.0000000953674,13,7.0000000953674,13C7.0000000953674,13,7.0000000953674,13,7.0000000953674,13ZM12,13C12,13,17,13,17,13C17,13,17,11,17,11C17,11,12,11,12,11C12,11,12,13,12,13C12,13,12,13,12,13ZM11,7C11,7,11,12,11,12C11,12,13,12,13,12C13,12,13,7,13,7C13,7,11,7,11,7C11,7,11,7,11,7ZM11,12C11,12,11,17,11,17C11,17,13,17,13,17C13,17,13,12,13,12C13,12,11,12,11,12C11,12,11,12,11,12Z"  /></g></g></g></svg>