<svg xmlns="http://www.w3.org/2000/svg" xmlns:xlink="http://www.w3.org/1999/xlink" fill="none" version="1.1" width="24" height="24" viewBox="0 0 24 24"><clipPath id="master_svg_0"><rect x="0" y="0" width="24" height="24" rx="0"/></clipPath><g clip-path="url(#master_svg_0)"><g><g style="mix-blend-mode:passthrough"><path d="M3,20C3,20.5523,3.447715,21,4,21C4.552285,21,5,20.5523,5,20C5,20,3,20,3,20C3,20,3,20,3,20ZM12.75,15C13.30229,15,13.75,14.5523,13.75,14C13.75,13.4477,13.30229,13,12.75,13C12.75,13,12.75,15,12.75,15C12.75,15,12.75,15,12.75,15ZM18.5355,13.9645C18.5355,13.4122,18.0878,12.96448,17.5355,12.96448C16.9832,12.96448,16.5355,13.4122,16.5355,13.9645C16.5355,13.9645,18.5355,13.9645,18.5355,13.9645C18.5355,13.9645,18.5355,13.9645,18.5355,13.9645ZM16.5355,21.0355C16.5355,21.5878,16.9832,22.0355,17.5355,22.0355C18.0878,22.0355,18.5355,21.5878,18.5355,21.0355C18.5355,21.0355,16.5355,21.0355,16.5355,21.0355C16.5355,21.0355,16.5355,21.0355,16.5355,21.0355ZM21.0711,18.5C21.6233,18.5,22.0711,18.052300000000002,22.0711,17.5C22.0711,16.947699999999998,21.6233,16.5,21.0711,16.5C21.0711,16.5,21.0711,18.5,21.0711,18.5C21.0711,18.5,21.0711,18.5,21.0711,18.5ZM13.99999,16.5C13.4477,16.5,12.99999,16.947699999999998,12.99999,17.5C12.99999,18.052300000000002,13.4477,18.5,13.99999,18.5C13.99999,18.5,13.99999,16.5,13.99999,16.5C13.99999,16.5,13.99999,16.5,13.99999,16.5ZM5,20C5,20,5,19,5,19C5,19,3,19,3,19C3,19,3,20,3,20C3,20,5,20,5,20C5,20,5,20,5,20ZM14,7C14,8.65685,12.65685,10,11,10C11,10,11,12,11,12C13.76142,12,16,9.761420000000001,16,7C16,7,14,7,14,7C14,7,14,7,14,7ZM11,10C9.34315,10,8,8.65685,8,7C8,7,6,7,6,7C6,9.761420000000001,8.238579999999999,12,11,12C11,12,11,10,11,10C11,10,11,10,11,10ZM8,7C8,5.34315,9.34315,4,11,4C11,4,11,2,11,2C8.238579999999999,2,6,4.23858,6,7C6,7,8,7,8,7C8,7,8,7,8,7ZM11,4C12.65685,4,14,5.34315,14,7C14,7,16,7,16,7C16,4.23858,13.76142,2,11,2C11,2,11,4,11,4C11,4,11,4,11,4ZM16.5355,13.9645C16.5355,13.9645,16.5355,17.5,16.5355,17.5C16.5355,17.5,18.5355,17.5,18.5355,17.5C18.5355,17.5,18.5355,13.9645,18.5355,13.9645C18.5355,13.9645,16.5355,13.9645,16.5355,13.9645C16.5355,13.9645,16.5355,13.9645,16.5355,13.9645ZM16.5355,17.5C16.5355,17.5,16.5355,21.0355,16.5355,21.0355C16.5355,21.0355,18.5355,21.0355,18.5355,21.0355C18.5355,21.0355,18.5355,17.5,18.5355,17.5C18.5355,17.5,16.5355,17.5,16.5355,17.5C16.5355,17.5,16.5355,17.5,16.5355,17.5ZM17.5355,18.5C17.5355,18.5,21.0711,18.5,21.0711,18.5C21.0711,18.5,21.0711,16.5,21.0711,16.5C21.0711,16.5,17.5355,16.5,17.5355,16.5C17.5355,16.5,17.5355,18.5,17.5355,18.5C17.5355,18.5,17.5355,18.5,17.5355,18.5ZM17.5355,16.5C17.5355,16.5,13.99999,16.5,13.99999,16.5C13.99999,16.5,13.99999,18.5,13.99999,18.5C13.99999,18.5,17.5355,18.5,17.5355,18.5C17.5355,18.5,17.5355,16.5,17.5355,16.5C17.5355,16.5,17.5355,16.5,17.5355,16.5ZM5,19C5,16.7909,6.79086,15,9,15C9,15,9,13,9,13C5.68629,13,3,15.6863,3,19C3,19,5,19,5,19C5,19,5,19,5,19ZM9,15C9,15,12.75,15,12.75,15C12.75,15,12.75,13,12.75,13C12.75,13,9,13,9,13C9,13,9,15,9,15C9,15,9,15,9,15Z" fill="#000000" fill-opacity="1"/></g></g></g></svg>