<svg xmlns="http://www.w3.org/2000/svg" xmlns:xlink="http://www.w3.org/1999/xlink" fill="none" version="1.1" width="26" height="26" viewBox="0 0 26 26"><clipPath id="master_svg_0"><rect x="0" y="0" width="26" height="26" rx="0"/></clipPath><g clip-path="url(#master_svg_0)" style="mix-blend-mode:passthrough"><g><g style="mix-blend-mode:passthrough"><path d="M12.5833759765625,5.333335876464844Q10.9265159765625,5.333335876464844,9.7549459765625,6.504905876464844Q8.5833759765625,7.676485876464843,8.5833759765625,9.333335876464844L8.5833759765625,14.200555876464843Q8.5833759765625,14.281355876464843,8.5704059765625,14.361135876464843Q8.5574359765625,14.440835876464844,8.5318259765625,14.517435876464845Q8.5062259765625,14.594135876464843,8.4686459765625,14.665635876464844Q8.4310759765625,14.737135876464844,8.3825059765625,14.801735876464845Q8.3339359765625,14.866235876464843,8.2756359765625,14.922235876464844Q8.217325976562499,14.978135876464844,8.1507959765625,15.023935876464844Q8.0842759765625,15.069835876464843,8.011245976562499,15.104435876464844Q7.938225976562499,15.138935876464844,7.8605959765625,15.161335876464843Q7.2282459765625,15.343835876464844,6.8255159765624995,15.871335876464844Q6.4166259765625,16.406835876464843,6.4166259765625,17.083335876464844L6.4166259765625,18.416635876464845L5.4166259765625,18.416635876464845L5.4166259765625,17.416635876464845L7.5833759765625,17.416635876464845L18.4167259765625,17.416635876464845L20.5833259765625,17.416635876464845L20.5833259765625,18.416635876464845L19.5833259765625,18.416635876464845L19.5833259765625,17.083335876464844Q19.5833259765625,16.406835876464843,19.1744259765625,15.871335876464844Q18.7717259765625,15.343835876464844,18.1394259765625,15.161435876464843Q18.061825976562503,15.139035876464844,17.988825976562502,15.104435876464844Q17.9157259765625,15.069835876464843,17.8492259765625,15.024035876464843Q17.7827259765625,14.978135876464844,17.7244259765625,14.922235876464844Q17.666125976562498,14.866335876464843,17.6175259765625,14.801735876464845Q17.5690259765625,14.737135876464844,17.531425976562502,14.665635876464844Q17.493825976562498,14.594135876464843,17.4682259765625,14.517535876464844Q17.4426259765625,14.440835876464844,17.4297259765625,14.361135876464843Q17.4167259765625,14.281395876464844,17.4167259765625,14.200605876464843L17.4167259765625,9.333335876464844Q17.4167259765625,7.676485876464843,16.2451259765625,6.504905876464844Q15.0735659765625,5.333335876464844,13.4167059765625,5.333335876464844L12.5833759765625,5.333335876464844ZM12.5833759765625,3.3333358764648438L13.4167059765625,3.3333358764648438Q15.9020259765625,3.3333358764648438,17.6593259765625,5.090694876464844Q19.4167259765625,6.848055876464844,19.4167259765625,9.333335876464844L19.4167259765625,14.200605876464843L18.4167259765625,14.200605876464843L18.6940259765625,13.239815876464844Q19.9607259765625,13.605385876464844,20.7641259765625,14.657735876464844Q21.5833259765625,15.730735876464843,21.5833259765625,17.083335876464844L21.5833259765625,18.416635876464845Q21.5833259765625,18.515135876464846,21.5641259765625,18.61173587646484Q21.5448259765625,18.708335876464844,21.5071259765625,18.799335876464845Q21.4695259765625,18.890335876464846,21.4147259765625,18.972235876464843Q21.3600259765625,19.054135876464844,21.2904259765625,19.123735876464842Q21.2207259765625,19.193435876464843,21.1388259765625,19.248135876464843Q21.0569259765625,19.302835876464844,20.9660259765625,19.34053587646484Q20.875025976562497,19.378235876464842,20.778425976562502,19.397435876464844Q20.6818259765625,19.416635876464845,20.5833259765625,19.416635876464845L18.4167259765625,19.416635876464845L7.5833759765625,19.416635876464845L5.4166259765625,19.416635876464845Q5.3181345765625,19.416635876464845,5.2215359765625,19.397435876464844Q5.1249369765625,19.378235876464842,5.0339429765625,19.34053587646484Q4.9429479765625,19.302835876464844,4.8610559765625,19.248135876464843Q4.7791629765625,19.193435876464843,4.7095189765625,19.123735876464842Q4.6398749765625,19.054135876464844,4.5851559765625,18.972235876464843Q4.5304379765625,18.890335876464846,4.4927469765625,18.799335876464845Q4.4550559765625,18.708335876464844,4.4358409765625,18.61173587646484Q4.4166259765625,18.515135876464846,4.4166259765625,18.416635876464845L4.4166259765625,17.083335876464844Q4.4166259765625,15.730635876464843,5.2358779765625,14.657635876464843Q6.0393389765625,13.605265876464843,7.3061459765625,13.239755876464844L7.5833759765625,14.200555876464843L6.5833759765625,14.200555876464843L6.5833759765625,9.333335876464844Q6.5833759765625,6.848055876464844,8.3407359765625,5.090694876464844Q10.098095976562501,3.3333358764648438,12.5833759765625,3.3333358764648438Z" fill="#000000" fill-opacity="1"/></g><g style="mix-blend-mode:passthrough"><ellipse cx="13.000040531158447" cy="20.583330631256104" rx="2.1666665077209473" ry="2.1666665077209473" fill-opacity="0" stroke-opacity="1" stroke="#000000" stroke-width="2" fill="none" stroke-linecap="round" stroke-dasharray="" stroke-linejoin="round"/></g><g style="mix-blend-mode:passthrough"><path d="M14.04,3.25C14.04,2.651691,13.574376,2.16667,13,2.16667C12.425624,2.16667,11.96,2.651691,11.96,3.25C11.96,3.25,14.04,3.25,14.04,3.25C14.04,3.25,14.04,3.25,14.04,3.25ZM11.96,4.33333C11.96,4.93164,12.425624,5.41667,13,5.41667C13.574376,5.41667,14.04,4.93164,14.04,4.33333C14.04,4.33333,11.96,4.33333,11.96,4.33333C11.96,4.33333,11.96,4.33333,11.96,4.33333ZM11.96,3.25C11.96,3.25,11.96,4.33333,11.96,4.33333C11.96,4.33333,14.04,4.33333,14.04,4.33333C14.04,4.33333,14.04,3.25,14.04,3.25C14.04,3.25,11.96,3.25,11.96,3.25C11.96,3.25,11.96,3.25,11.96,3.25Z" fill="#000000" fill-opacity="1"/></g></g></g></svg>