<svg xmlns="http://www.w3.org/2000/svg" xmlns:xlink="http://www.w3.org/1999/xlink" fill="none" version="1.1" width="27" height="27" viewBox="0 0 27 27"><clipPath id="master_svg_0"><rect x="0" y="0" width="27" height="27" rx="0"/></clipPath><g clip-path="url(#master_svg_0)" style="mix-blend-mode:passthrough"><g><g style="mix-blend-mode:passthrough"><path d="M4.62493896484375,9.875003814697266Q4.62493896484375,8.632362814697265,5.50361896484375,7.753683814697266Q6.38229796484375,6.875003814697266,7.62493896484375,6.875003814697266L19.37493896484375,6.875003814697266Q20.61753896484375,6.875003814697266,21.496238964843748,7.753683814697266Q22.37493896484375,8.632363814697266,22.37493896484375,9.875003814697266L22.37493896484375,20.625003814697266Q22.37493896484375,22.281903814697266,21.203338964843752,23.453403814697268Q20.03183896484375,24.625003814697266,18.37493896484375,24.625003814697266L8.62493896484375,24.625003814697266Q6.96808896484375,24.625003814697266,5.79651196484375,23.453403814697268Q4.62493896484375,22.281903814697266,4.62493896484375,20.625003814697266L4.62493896484375,9.875003814697266ZM6.62493896484375,9.875003814697266L6.62493896484375,20.625003814697266Q6.62493896484375,21.453403814697268,7.21072896484375,22.039203814697267Q7.79650896484375,22.625003814697266,8.62493896484375,22.625003814697266L18.37493896484375,22.625003814697266Q19.203338964843752,22.625003814697266,19.78913896484375,22.039203814697267Q20.37493896484375,21.453403814697268,20.37493896484375,20.625003814697266L20.37493896484375,9.875003814697266Q20.37493896484375,9.460793814697265,20.08203896484375,9.167893814697265Q19.78913896484375,8.875003814697266,19.37493896484375,8.875003814697266L7.62493896484375,8.875003814697266Q7.21072896484375,8.875003814697266,6.91782896484375,9.167893814697265Q6.62493896484375,9.460793814697265,6.62493896484375,9.875003814697266Z" fill="#000000" fill-opacity="1"/></g><g style="mix-blend-mode:passthrough"><path d="M15.75,11.25C15.75,11.87131,16.25368,12.375,16.875,12.375C17.49631,12.375,18,11.87131,18,11.25C18,11.25,15.75,11.25,15.75,11.25C15.75,11.25,15.75,11.25,15.75,11.25ZM9,11.25C9,11.87131,9.503679,12.375,10.125,12.375C10.746321,12.375,11.25,11.87131,11.25,11.25C11.25,11.25,9,11.25,9,11.25C9,11.25,9,11.25,9,11.25ZM15.75,6.75C15.75,6.75,15.75,11.25,15.75,11.25C15.75,11.25,18,11.25,18,11.25C18,11.25,18,6.75,18,6.75C18,6.75,15.75,6.75,15.75,6.75C15.75,6.75,15.75,6.75,15.75,6.75ZM11.25,11.25C11.25,11.25,11.25,6.75,11.25,6.75C11.25,6.75,9,6.75,9,6.75C9,6.75,9,11.25,9,11.25C9,11.25,11.25,11.25,11.25,11.25C11.25,11.25,11.25,11.25,11.25,11.25ZM13.5,4.5C14.74264,4.5,15.75,5.50736,15.75,6.75C15.75,6.75,18,6.75,18,6.75C18,4.264719,15.98528,2.25,13.5,2.25C13.5,2.25,13.5,4.5,13.5,4.5C13.5,4.5,13.5,4.5,13.5,4.5ZM13.5,2.25C11.014719,2.25,9,4.264719,9,6.75C9,6.75,11.25,6.75,11.25,6.75C11.25,5.50736,12.25736,4.5,13.5,4.5C13.5,4.5,13.5,2.25,13.5,2.25C13.5,2.25,13.5,2.25,13.5,2.25Z" fill="#000000" fill-opacity="1"/></g></g></g></svg>