<svg xmlns="http://www.w3.org/2000/svg" xmlns:xlink="http://www.w3.org/1999/xlink" fill="#000000" version="1.1" width="27" height="27" viewBox="0 0 27 27"><g style="mix-blend-mode:passthrough"><g><g style="mix-blend-mode:passthrough"><path d="M5.165834345703125,17.21725C2.6369813457031253,11.01009,7.203484345703124,4.21875,13.906054345703126,4.21875C13.906054345703126,4.21875,14.267654345703125,4.21875,14.267654345703125,4.21875C19.280254345703124,4.21875,23.343754345703125,8.28226,23.343754345703125,13.29486C23.343754345703125,18.87585,18.819454345703125,23.39995,13.238564345703125,23.39995C13.238564345703125,23.39995,4.440751345703125,23.39995,4.440751345703125,23.39995C4.082712345703125,23.39995,3.763659345703125,23.17395,3.644828045703125,22.83625C3.525996945703125,22.49855,3.633266045703125,22.12255,3.9124263457031248,21.89835C3.9124263457031248,21.89835,6.130354345703125,20.117150000000002,6.130354345703125,20.117150000000002C6.227324345703125,20.03925,6.261644345703125,19.906950000000002,6.214704345703125,19.79175C6.214704345703125,19.79175,5.165834345703125,17.21725,5.165834345703125,17.21725C5.165834345703125,17.21725,5.165834345703125,17.21725,5.165834345703125,17.21725ZM13.906054345703126,5.90625C8.401914345703126,5.90625,4.6519343457031255,11.483270000000001,6.7286043457031255,16.580550000000002C6.7286043457031255,16.580550000000002,7.777484345703125,19.15515,7.777484345703125,19.15515C8.105984345703124,19.96145,7.865854345703125,20.88775,7.186994345703125,21.43295C7.186994345703125,21.43295,6.838874345703125,21.71245,6.838874345703125,21.71245C6.838874345703125,21.71245,13.238564345703125,21.71245,13.238564345703125,21.71245C17.887454345703127,21.71245,21.656254345703125,17.94375,21.656254345703125,13.29486C21.656254345703125,9.21424,18.348154345703126,5.90625,14.267654345703125,5.90625C14.267654345703125,5.90625,13.906054345703126,5.90625,13.906054345703126,5.90625C13.906054345703126,5.90625,13.906054345703126,5.90625,13.906054345703126,5.90625Z" /></g></g></g></svg>