<svg xmlns="http://www.w3.org/2000/svg" xmlns:xlink="http://www.w3.org/1999/xlink" fill="none" version="1.1" width="24" height="24" viewBox="0 0 24 24"><clipPath id="master_svg_0"><rect x="0" y="0" width="24" height="24" rx="0"/></clipPath><g clip-path="url(#master_svg_0)" style="mix-blend-mode:passthrough"><g><g style="mix-blend-mode:passthrough"><path d="M9.000007855300904,4Q9.000007855300904,3.171573,9.585787855300904,2.585786Q10.171577855300903,2,11.000007855300904,2L13.000007855300904,2Q13.828427855300903,2,14.414227855300902,2.585786Q15.000027855300903,3.171573,15.000027855300903,4L15.000027855300903,6.34315L14.000027855300903,6.34315L14.333327855300903,5.40034Q15.559927855300904,5.83401,16.548827855300903,6.67944L15.898927855300903,7.43952L15.398927855300903,6.57349L17.428227855300904,5.4019200000000005Q18.1456278553009,4.98771,18.945827855300905,5.20212Q19.746027855300902,5.41653,20.160227855300903,6.13397L21.160227855300903,7.86602Q21.574427855300904,8.583459999999999,21.360027855300903,9.383659999999999Q21.145627855300905,10.18386,20.428227855300904,10.59807L18.399027855300904,11.76964L17.899027855300904,10.90361L18.8821278553009,10.720880000000001Q19.000027855300903,11.35501,19.000027855300903,12Q19.000027855300903,12.64498,18.8821278553009,13.2791L17.899027855300904,13.0964L18.399027855300904,12.23035L20.428227855300904,13.4019Q21.145627855300905,13.8161,21.360027855300903,14.6163Q21.574427855300904,15.4165,21.160227855300903,16.134L20.160227855300903,17.866Q19.746027855300902,18.5835,18.945827855300905,18.7979Q18.1456278553009,19.0123,17.428227855300904,18.598100000000002L15.399027855300904,17.4265L15.899027855300904,16.560499999999998L16.548827855300903,17.3206Q15.559927855300904,18.166,14.333327855300903,18.5997L14.000027855300903,17.6569L15.000027855300903,17.6569L15.000027855300903,20Q15.000027855300903,20.8284,14.414227855300902,21.4142Q13.828427855300903,22,13.000007855300904,22L11.000007855300904,22Q10.171577855300903,22,9.585787855300904,21.4142Q9.000007855300904,20.8284,9.000007855300904,20L9.000007855300904,17.6569L10.000007855300904,17.6569L9.666667855300904,18.5997Q8.440057855300903,18.166,7.451187855300903,17.3205L8.101017855300903,16.560499999999998L8.601017855300903,17.4265L6.5717878553009035,18.598100000000002Q5.854347855300903,19.0123,5.054157855300903,18.7979Q4.253952855300903,18.5835,3.8397398553009032,17.866L2.8397398553009032,16.134Q2.4255278553009036,15.4165,2.6399388553009033,14.6163Q2.8543518553009033,13.8161,3.5717894433009034,13.4019L5.601017855300903,12.23034L6.101017855300903,13.0964L5.117857855300903,13.2791Q5.000007855300903,12.64498,5.000007855300903,12Q5.000007855300903,11.35502,5.117857855300903,10.72089L6.101027855300903,10.90362L5.601027855300903,11.76965L3.5717917683009035,10.59807Q2.8543528553009034,10.18386,2.6399398553009035,9.383659999999999Q2.4255278553009036,8.583459999999999,2.8397398553009032,7.86602L3.8397408553009034,6.13397Q4.253952855300903,5.41653,5.054157855300903,5.20212Q5.854347855300903,4.9877,6.5717878553009035,5.4019200000000005L8.601027855300902,6.5735L8.101027855300902,7.43952L7.4511978553009035,6.67944Q8.440067855300903,5.83401,9.666667855300904,5.40034L10.000007855300904,6.34315L9.000007855300904,6.34315L9.000007855300904,4ZM11.000007855300904,4L11.000007855300904,6.34315Q10.999997855300904,6.42023,10.988187855300904,6.49641Q10.976377855300903,6.57259,10.953027855300903,6.64605Q10.929677855300904,6.71952,10.895337855300903,6.788539999999999Q10.861007855300905,6.85755,10.816497855300902,6.9205000000000005Q10.771997855300903,6.98344,10.718367855300905,7.03881Q10.664737855300903,7.09419,10.603257855300903,7.14069Q10.541777855300904,7.1872,10.473897855300903,7.22373Q10.406017855300902,7.26026,10.333337855300904,7.28595Q9.457187855300903,7.59572,8.750857855300904,8.1996Q8.692257855300904,8.249690000000001,8.626687855300904,8.29022Q8.561107855300904,8.330739999999999,8.490097855300903,8.36073Q8.419077855300904,8.39072,8.344307855300904,8.40948Q8.269537855300904,8.42823,8.192777855300903,8.4353Q8.116017855300903,8.44238,8.039077855300903,8.4376Q7.962137855300903,8.43283,7.886837855300904,8.41631Q7.811537855300903,8.399799999999999,7.739657855300903,8.37195Q7.667787855300904,8.34409,7.601027855300903,8.30555L5.5717878553009035,7.13397L5.5717878553009035,7.13397L4.5717878553009035,8.866019999999999Q4.5717878553009035,8.866019999999999,4.5717878553009035,8.866019999999999L6.601027855300903,10.037600000000001Q6.667787855300903,10.076139999999999,6.727847855300903,10.12446Q6.787907855300903,10.17278,6.839857855300903,10.22974Q6.891807855300904,10.28669,6.934407855300903,10.35093Q6.977017855300904,10.41518,7.009267855300903,10.48519Q7.041527855300903,10.5552,7.062667855300903,10.62934Q7.083817855300904,10.70347,7.0933478553009035,10.779959999999999Q7.102877855300903,10.85646,7.100577855300903,10.93351Q7.098267855300904,11.01056,7.084187855300904,11.08635Q7.000007855300904,11.5393,7.000007855300904,12Q7.000007855300904,12.4607,7.084187855300904,12.91364Q7.098267855300904,12.98943,7.100577855300903,13.0665Q7.102877855300903,13.1435,7.0933478553009035,13.22Q7.083817855300904,13.2965,7.062667855300903,13.3707Q7.041527855300903,13.4448,7.009267855300903,13.5148Q6.977017855300904,13.5848,6.934407855300903,13.6491Q6.891807855300904,13.7133,6.839857855300903,13.7703Q6.787907855300903,13.8272,6.727847855300903,13.8755Q6.667777855300903,13.9238,6.601017855300903,13.9624L4.5717878553009035,15.134L4.5717878553009035,15.134Q4.5717878553009035,15.134,4.5717878553009035,15.134L5.5717878553009035,16.866Q5.5717878553009035,16.866,5.5717878553009035,16.866L7.601017855300904,15.6944Q7.667777855300903,15.6559,7.739647855300904,15.628Q7.811527855300903,15.6002,7.886827855300903,15.5837Q7.962127855300904,15.5672,8.039067855300903,15.5624Q8.116007855300904,15.5576,8.192767855300904,15.5647Q8.269527855300904,15.5718,8.344297855300903,15.5905Q8.419067855300902,15.6093,8.490087855300903,15.6393Q8.561097855300904,15.6693,8.626677855300903,15.7098Q8.692257855300904,15.7503,8.750847855300904,15.8004Q9.457187855300903,16.4043,10.333337855300904,16.714Q10.406017855300902,16.7397,10.473897855300903,16.7763Q10.541777855300904,16.8128,10.603257855300903,16.859299999999998Q10.664737855300903,16.9058,10.718367855300905,16.961199999999998Q10.771997855300903,17.0166,10.816497855300902,17.0795Q10.861007855300905,17.142400000000002,10.895337855300903,17.2115Q10.929677855300904,17.2805,10.953027855300903,17.3539Q10.976377855300903,17.4274,10.988187855300904,17.5036Q11.000007855300904,17.5798,11.000007855300904,17.6569L11.000007855300904,20L11.000007855300904,20L13.000007855300904,20L13.000007855300904,20L13.000007855300904,17.6569Q12.999997855300903,17.5798,13.011817855300903,17.5036Q13.023627855300903,17.4274,13.046987855300904,17.3539Q13.070327855300903,17.2805,13.104667855300903,17.2115Q13.138997855300904,17.142400000000002,13.183507855300903,17.0795Q13.228007855300904,17.0166,13.281637855300904,16.961199999999998Q13.335267855300904,16.9058,13.396747855300903,16.859299999999998Q13.458227855300903,16.8128,13.526107855300904,16.7763Q13.594027855300903,16.7397,13.666627855300904,16.714Q14.542827855300903,16.4043,15.249127855300904,15.8004Q15.307727855300904,15.7503,15.373327855300904,15.7098Q15.438927855300904,15.6693,15.509927855300903,15.6393Q15.580927855300903,15.6093,15.655727855300903,15.5905Q15.730427855300903,15.5718,15.807227855300903,15.5647Q15.884027855300904,15.5576,15.960927855300904,15.5624Q16.037827855300904,15.5672,16.113127855300903,15.5837Q16.1884278553009,15.6002,16.260327855300904,15.6281Q16.332227855300903,15.6559,16.399027855300904,15.6945L18.428227855300904,16.866L18.428227855300904,16.866L19.428227855300904,15.134Q19.428227855300904,15.134,19.428227855300904,15.134L17.399027855300904,13.9624Q17.332227855300903,13.9239,17.2721278553009,13.8755Q17.212127855300903,13.8272,17.160127855300903,13.7703Q17.108227855300903,13.7133,17.065627855300903,13.6491Q17.023027855300903,13.5848,16.990727855300904,13.5148Q16.958527855300904,13.4448,16.937327855300904,13.3707Q16.916227855300903,13.2965,16.906627855300904,13.22Q16.8971278553009,13.1435,16.899427855300903,13.0665Q16.901727855300905,12.98943,16.915827855300904,12.91365Q17.000027855300903,12.4607,17.000027855300903,12Q17.000027855300903,11.53929,16.915827855300904,11.08635Q16.901727855300905,11.01056,16.899427855300903,10.9335Q16.8971278553009,10.856449999999999,16.906627855300904,10.77995Q16.916227855300903,10.70346,16.937327855300904,10.62933Q16.958427855300904,10.5552,16.990727855300904,10.48518Q17.023027855300903,10.41517,17.065627855300903,10.35093Q17.108227855300903,10.28668,17.160127855300903,10.22973Q17.212127855300903,10.17277,17.2721278553009,10.12445Q17.332227855300903,10.07613,17.399027855300904,10.03759L19.428227855300904,8.866019999999999Q19.428227855300904,8.866019999999999,19.428227855300904,8.866019999999999L18.428227855300904,7.13397L18.428227855300904,7.13397L16.398927855300904,8.30554Q16.332227855300903,8.34408,16.260327855300904,8.37194Q16.1884278553009,8.399799999999999,16.113127855300903,8.41631Q16.037827855300904,8.43282,15.960927855300904,8.43759Q15.884027855300904,8.44237,15.807227855300903,8.4353Q15.730427855300903,8.42822,15.655727855300903,8.409469999999999Q15.580927855300903,8.39072,15.509927855300903,8.36072Q15.438927855300904,8.330729999999999,15.373327855300904,8.29021Q15.307727855300904,8.249690000000001,15.249127855300904,8.1996Q14.542827855300903,7.59572,13.666627855300904,7.28595Q13.594027855300903,7.26026,13.526107855300904,7.22373Q13.458227855300903,7.1872,13.396747855300903,7.14069Q13.335267855300904,7.09419,13.281637855300904,7.03881Q13.228007855300904,6.98344,13.183507855300903,6.9205000000000005Q13.138997855300904,6.85755,13.104667855300903,6.788539999999999Q13.070327855300903,6.71952,13.046987855300904,6.64605Q13.023627855300903,6.57259,13.011817855300903,6.49641Q12.999997855300903,6.42023,13.000007855300904,6.34315L13.000007855300904,4Q13.000007855300904,4,13.000007855300904,4L11.000007855300904,4L11.000007855300904,4Z" fill="#000000" fill-opacity="1"/></g><g style="mix-blend-mode:passthrough"><ellipse cx="12" cy="12" rx="3" ry="3" fill-opacity="0" stroke-opacity="1" stroke="#000000" stroke-width="2" fill="none" stroke-linecap="round" stroke-dasharray="" stroke-linejoin="round"/></g></g></g></svg>