<svg xmlns="http://www.w3.org/2000/svg" xmlns:xlink="http://www.w3.org/1999/xlink" fill="#000000" version="1.1" width="24" height="24" viewBox="0 0 24 24"><g style="mix-blend-mode:passthrough"><g><g style="mix-blend-mode:passthrough"><path d="M10.486362519378662,4.114182377456665C11.160782519378662,2.951915377456665,12.839192519378662,2.951918377456665,13.513592519378662,4.114183377456665C13.513592519378662,4.114183377456665,15.578992519378662,7.6735433774566655,15.578992519378662,7.6735433774566655C15.769392519378663,8.001623377456665,16.098392519378663,8.225523377456664,16.473492519378663,8.282163377456666C16.473492519378663,8.282163377456666,19.903092519378664,8.800173377456666,19.903092519378664,8.800173377456666C21.39809251937866,9.025973377456666,21.92249251937866,10.913543377456666,20.758192519378664,11.878143377456665C20.758192519378664,11.878143377456665,18.25929251937866,13.948483377456665,18.25929251937866,13.948483377456665C17.90859251937866,14.239083377456666,17.743692519378662,14.697383377456665,17.828892519378662,15.144883377456665C17.828892519378662,15.144883377456665,18.52889251937866,18.820783377456664,18.52889251937866,18.820783377456664C18.803092519378662,20.260783377456665,17.29139251937866,21.379583377456665,15.994392519378662,20.696683377456665C15.994392519378662,20.696683377456665,12.582382519378662,18.900083377456667,12.582382519378662,18.900083377456667C12.217852519378662,18.708083377456667,11.782152519378663,18.708083377456667,11.417622519378662,18.900083377456667C11.417622519378662,18.900083377456667,8.005592519378663,20.696583377456665,8.005592519378663,20.696583377456665C6.708572519378662,21.379583377456665,5.196952519378662,20.260783377456665,5.471142519378662,18.820783377456664C5.471142519378662,18.820783377456664,6.171132519378662,15.144883377456665,6.171132519378662,15.144883377456665C6.256332519378662,14.697383377456665,6.091412519378662,14.239083377456666,5.740672519378663,13.948483377456665C5.740672519378663,13.948483377456665,3.241766519378662,11.878143377456665,3.241766519378662,11.878143377456665C2.077482519378662,10.913543377456666,2.6018855593786623,9.025973377456666,4.096882519378662,8.800173377456666C4.096882519378662,8.800173377456666,7.526522519378662,8.282163377456666,7.526522519378662,8.282163377456666C7.901592519378662,8.225523377456664,8.230642519378662,8.001623377456665,8.421012519378662,7.6735433774566655C8.421012519378662,7.6735433774566655,10.486362519378662,4.114182377456665,10.486362519378662,4.114182377456665C10.486362519378662,4.114182377456665,10.486362519378662,4.114182377456665,10.486362519378662,4.114182377456665ZM12.216232519378663,4.867013377456665C12.119892519378663,4.700973377456665,11.880112519378661,4.700973377456665,11.783762519378662,4.867013377456665C11.783762519378662,4.867013377456665,9.718412519378662,8.426373377456665,9.718412519378662,8.426373377456665C9.299592519378663,9.148153377456666,8.575682519378663,9.640713377456665,7.750542519378662,9.765343377456665C7.750542519378662,9.765343377456665,4.320892519378662,10.283353377456665,4.320892519378662,10.283353377456665C4.107322519378663,10.315613377456664,4.032412519378662,10.585263377456666,4.198732519378662,10.723063377456665C4.198732519378662,10.723063377456665,6.697642519378662,12.793373377456666,6.697642519378662,12.793373377456666C7.469272519378662,13.432683377456666,7.832092519378662,14.441083377456666,7.6446525193786625,15.425483377456665C7.6446525193786625,15.425483377456665,6.9446725193786625,19.101383377456663,6.9446725193786625,19.101383377456663C6.905502519378662,19.307083377456664,7.121442519378662,19.466983377456664,7.306732519378662,19.369383377456664C7.306732519378662,19.369383377456664,10.718762519378663,17.572783377456666,10.718762519378663,17.572783377456666C11.520732519378662,17.150483377456666,12.479272519378663,17.150483377456666,13.281192519378662,17.572783377456666C13.281192519378662,17.572783377456666,16.693292519378662,19.369383377456664,16.693292519378662,19.369383377456664C16.878592519378664,19.466983377456664,17.09449251937866,19.307083377456664,17.05529251937866,19.101383377456663C17.05529251937866,19.101383377456663,16.35539251937866,15.425483377456665,16.35539251937866,15.425483377456665C16.16789251937866,14.441083377456666,16.53069251937866,13.432683377456666,17.302392519378664,12.793373377456666C17.302392519378664,12.793373377456666,19.801292519378663,10.723063377456665,19.801292519378663,10.723063377456665C19.967592519378663,10.585263377456666,19.892692519378663,10.315603377456664,19.679092519378663,10.283353377456665C19.679092519378663,10.283353377456665,16.249492519378663,9.765343377456665,16.249492519378663,9.765343377456665C15.424292519378662,9.640713377456665,14.700392519378662,9.148153377456666,14.281592519378663,8.426373377456665C14.281592519378663,8.426373377456665,12.216232519378663,4.867013377456665,12.216232519378663,4.867013377456665C12.216232519378663,4.867013377456665,12.216232519378663,4.867013377456665,12.216232519378663,4.867013377456665Z" /></g></g></g></svg>