<svg xmlns="http://www.w3.org/2000/svg" xmlns:xlink="http://www.w3.org/1999/xlink" fill="none" version="1.1" width="14.166664123535156" height="14.166664123535156" viewBox="0 0 14.166664123535156 14.166664123535156"><g style="mix-blend-mode:passthrough"><path d="M10.5819,12.5983C10.5819,12.5983,10.2979,13.2472,10.2979,13.2472C10.2979,13.2472,10.5819,12.5983,10.5819,12.5983C10.5819,12.5983,10.5819,12.5983,10.5819,12.5983ZM6.79942,11.1919C6.79942,11.1919,6.5155,10.543,6.5155,10.543C6.5155,10.543,6.79942,11.1919,6.79942,11.1919C6.79942,11.1919,6.79942,11.1919,6.79942,11.1919ZM8.35047,2.53421C8.35047,2.53421,7.71687,2.85099,7.71687,2.85099C7.71687,2.85099,8.35047,2.53421,8.35047,2.53421C8.35047,2.53421,8.35047,2.53421,8.35047,2.53421ZM5.18268,2.21744C5.18268,2.21744,1.11635,10.3501,1.11635,10.3501C1.11635,10.3501,2.38346,10.9836,2.38346,10.9836C2.38346,10.9836,6.44978,2.85098,6.44978,2.85098C6.44978,2.85098,5.18268,2.21744,5.18268,2.21744C5.18268,2.21744,5.18268,2.21744,5.18268,2.21744ZM3.86875,13.2472C3.86875,13.2472,7.08333,11.8409,7.08333,11.8409C7.08333,11.8409,6.5155,10.543,6.5155,10.543C6.5155,10.543,3.30092,11.9494,3.30092,11.9494C3.30092,11.9494,3.86875,13.2472,3.86875,13.2472C3.86875,13.2472,3.86875,13.2472,3.86875,13.2472ZM7.08333,11.8409C7.08333,11.8409,10.2979,13.2472,10.2979,13.2472C10.2979,13.2472,10.8658,11.9494,10.8658,11.9494C10.8658,11.9494,7.65113,10.543,7.65113,10.543C7.65113,10.543,7.08333,11.8409,7.08333,11.8409C7.08333,11.8409,7.08333,11.8409,7.08333,11.8409ZM13.0503,10.3501C13.0503,10.3501,8.984,2.21744,8.984,2.21744C8.984,2.21744,7.71687,2.85099,7.71687,2.85099C7.71687,2.85099,11.7832,10.9836,11.7832,10.9836C11.7832,10.9836,13.0503,10.3501,13.0503,10.3501C13.0503,10.3501,13.0503,10.3501,13.0503,10.3501ZM10.2979,13.2472C12.1188,14.0438,13.9391,12.1277,13.0503,10.3501C13.0503,10.3501,11.7832,10.9836,11.7832,10.9836C12.0795,11.5762,11.4727,12.2149,10.8658,11.9494C10.8658,11.9494,10.2979,13.2472,10.2979,13.2472C10.2979,13.2472,10.2979,13.2472,10.2979,13.2472ZM7.08333,11.8409C7.08333,11.8409,7.08333,11.8409,7.08333,11.8409C7.08333,11.8409,7.65113,10.543,7.65113,10.543C7.28917,10.3846,6.87749,10.3846,6.5155,10.543C6.5155,10.543,7.08333,11.8409,7.08333,11.8409C7.08333,11.8409,7.08333,11.8409,7.08333,11.8409ZM1.11635,10.3501C0.227516,12.1277,2.04788,14.0439,3.86875,13.2472C3.86875,13.2472,3.30092,11.9494,3.30092,11.9494C2.69397,12.2149,2.08717,11.5762,2.38346,10.9836C2.38346,10.9836,1.11635,10.3501,1.11635,10.3501C1.11635,10.3501,1.11635,10.3501,1.11635,10.3501ZM6.44978,2.85098C6.71082,2.32891,7.45584,2.32891,7.71687,2.85099C7.71687,2.85099,8.984,2.21744,8.984,2.21744C8.20087,0.651211,5.96579,0.651203,5.18268,2.21744C5.18268,2.21744,6.44978,2.85098,6.44978,2.85098C6.44978,2.85098,6.44978,2.85098,6.44978,2.85098Z" fill="#000000" fill-opacity="1"/></g></svg>